<svg width="9" height="17" viewBox="0 0 9 17" fill="none" xmlns="http://www.w3.org/2000/svg">
<path d="M3.54162 12.0704C3.5549 11.2082 3.64457 10.5271 3.81063 10.0272C3.97669 9.52725 4.31544 8.97298 4.8269 8.36438L6.1321 6.8972C6.69005 6.2089 6.96903 5.46988 6.96903 4.68014C6.96903 3.91938 6.78637 3.32527 6.42104 2.89779C6.05572 2.46308 5.52434 2.24572 4.8269 2.24572C4.14938 2.24572 3.60472 2.44134 3.1929 2.83259C2.78108 3.22383 2.57517 3.74912 2.57517 4.40844H0.731934C0.745218 3.2347 1.12715 2.28919 1.87773 1.5719C2.63495 0.847373 3.618 0.485107 4.8269 0.485107C6.08229 0.485107 7.0587 0.854618 7.75614 1.59364C8.46022 2.32542 8.81226 3.33251 8.81226 4.61493C8.81226 5.88286 8.27424 7.13268 7.19819 8.36438L6.11218 9.53812C5.62729 10.125 5.38485 10.9691 5.38485 12.0704H3.54162ZM3.46191 15.5155C3.46191 15.1895 3.55158 14.9178 3.73092 14.7004C3.9169 14.4758 4.18924 14.3635 4.54792 14.3635C4.9066 14.3635 5.17894 14.4758 5.36492 14.7004C5.5509 14.9178 5.6439 15.1895 5.6439 15.5155C5.6439 15.8415 5.5509 16.1132 5.36492 16.3306C5.17894 16.5407 4.9066 16.6458 4.54792 16.6458C4.18924 16.6458 3.9169 16.5407 3.73092 16.3306C3.55158 16.1132 3.46191 15.8415 3.46191 15.5155Z" fill="#747171"/>
</svg>
