<svg width="18" height="18" viewBox="0 0 18 18" fill="none" xmlns="http://www.w3.org/2000/svg">
<g opacity="0.6">
<path fill-rule="evenodd" clip-rule="evenodd" d="M8.79202 17.9221C13.6043 17.9221 17.5054 14.021 17.5054 9.20871C17.5054 4.39643 13.6043 0.4953 8.79202 0.4953C3.97974 0.4953 0.0786133 4.39643 0.0786133 9.20871C0.0786133 14.021 3.97974 17.9221 8.79202 17.9221ZM8.79199 15.5457C12.2918 15.5457 15.129 12.7085 15.129 9.20868C15.129 5.70884 12.2918 2.87166 8.79199 2.87166C5.29215 2.87166 2.45497 5.70884 2.45497 9.20868C2.45497 12.7085 5.29215 15.5457 8.79199 15.5457Z" fill="#C4C4C4"/>
<rect x="6.41553" y="5.24805" width="2.37638" height="5.5449" fill="#C4C4C4"/>
<rect x="12.439" y="10.3143" width="2.37638" height="5.5449" transform="rotate(110.014 12.439 10.3143)" fill="#C4C4C4"/>
</g>
</svg>
