<svg width="116" height="114" viewBox="0 0 116 114" fill="none" xmlns="http://www.w3.org/2000/svg">
<ellipse rx="30.9171" ry="18.035" transform="matrix(0.966532 -0.256547 0.26109 0.965314 60.8421 66.7459)" fill="#0068C7"/>
<ellipse rx="33.4935" ry="15.4586" transform="matrix(0.966532 -0.256547 0.26109 0.965314 59.497 61.7717)" fill="white"/>
<ellipse rx="33.4935" ry="15.4586" transform="matrix(0.966532 -0.256547 0.26109 0.965314 58.6 58.4557)" fill="#0068C7"/>
<ellipse rx="19.5546" ry="6.85268" transform="matrix(0.964265 -0.264939 0.252689 0.967547 57.4336 52.9331)" fill="white"/>
<path d="M38.69 35.264L51.3506 34.1484L63.9584 28.3214C63.9584 28.3214 60.4883 35.7947 72.122 43.8004C83.7557 51.8061 34.1878 64.8752 39.1631 52.8561C44.1383 40.837 38.69 35.264 38.69 35.264Z" fill="#0068C7"/>
<ellipse rx="21.8996" ry="12.4527" transform="matrix(0.966532 -0.256547 0.26109 0.965314 51.3462 33.2807)" fill="#0068C7"/>
<ellipse rx="12.4527" ry="5.58226" transform="matrix(0.966532 -0.256547 0.26109 0.965314 49.552 26.6485)" fill="white"/>
<ellipse rx="12.4527" ry="5.58226" transform="matrix(0.966532 -0.256547 0.26109 0.965314 48.8797 24.1615)" fill="#0068C7"/>
</svg>
